<?xml version="1.0" encoding="UTF-8"?>
<!DOCTYPE svg PUBLIC "-//W3C//DTD SVG 1.1//EN" "http://www.w3.org/Graphics/SVG/1.1/DTD/svg11.dtd">
<!-- Creator: CorelDRAW 2017 -->
<svg xmlns="http://www.w3.org/2000/svg" xml:space="preserve" width="251.598mm" height="51.9644mm" version="1.1" style="shape-rendering:geometricPrecision; text-rendering:geometricPrecision; image-rendering:optimizeQuality; fill-rule:evenodd; clip-rule:evenodd"
viewBox="0 0 23812.11 4918.09"
 xmlns:xlink="http://www.w3.org/1999/xlink">
 <defs>
  <style type="text/css">
   <![CDATA[
    .fil2 {fill:#1D283D;fill-rule:nonzero}
    .fil0 {fill:#1D283D;fill-rule:nonzero}
    .fil1 {fill:url(#id0)}
    .fil3 {fill:url(#id1);fill-rule:nonzero}
   ]]>
  </style>
  <linearGradient id="id0" gradientUnits="userSpaceOnUse" x1="5314.9" y1="3583.52" x2="1989.62" y2="584.76">
   <stop offset="0" style="stop-opacity:1; stop-color:#9635BF"/>
   <stop offset="0.4" style="stop-opacity:1; stop-color:#4D94F0"/>
   <stop offset="1" style="stop-opacity:1; stop-color:#02D18C"/>
  </linearGradient>
  <linearGradient id="id1" gradientUnits="userSpaceOnUse" x1="22013.42" y1="4494.16" x2="18575.42" y2="788.1">
   <stop offset="0" style="stop-opacity:1; stop-color:#9635BF"/>
   <stop offset="0.478431" style="stop-opacity:1; stop-color:#518FEE"/>
   <stop offset="1" style="stop-opacity:1; stop-color:#22B7B6"/>
  </linearGradient>
 </defs>
 <g id="Слой_x0020_1">
  <metadata id="CorelCorpID_0Corel-Layer"/>
  <path class="fil0" d="M8982.66 1566.95l0 2156.99 -350.35 0 0 -2156.99 350.35 0zm377.79 2156.99l0 -1480.64c160.46,-81.25 340.19,-123.91 539.25,-127.96 197,-2.03 362.03,43.15 495.05,135.59 133.05,92.41 199.57,234.05 199.57,424.99l0 1048.03 -332.09 0 0 -1044.99c-4.05,-83.27 -39.6,-145.72 -106.63,-187.36 -67.04,-41.63 -145.23,-62.46 -234.58,-62.46 -91.39,0 -166.55,18.29 -225.46,54.86l0 1239.95 -335.11 0zm2248.38 -271.14l0 292.47c-42.65,6.1 -84.28,9.15 -124.89,9.15 -166.55,0 -301.12,-46.73 -403.69,-140.16 -102.57,-93.43 -153.85,-234.58 -153.85,-423.47l0 -1416.67 301.62 0 30.47 371.7 301.62 0 0 304.64 -301.62 0 0 737.29c0,48.74 6.59,89.87 19.81,123.38 13.2,33.51 29.45,59.41 48.74,77.7 19.29,18.27 46.2,32.48 80.73,42.65 34.53,10.15 65.49,16.23 92.93,18.27 27.42,2.04 63.46,3.06 108.14,3.06zm1102.88 -182.8l280.29 161.48c-58.91,103.57 -140.65,183.31 -245.24,239.15 -104.61,55.85 -211.74,83.79 -321.42,83.79 -168.59,0 -314.81,-47.75 -438.71,-143.2 -123.91,-95.47 -185.84,-228.51 -185.84,-399.11l0 -554.49c0,-172.64 61.44,-306.16 184.32,-400.61 122.89,-94.44 269.63,-141.67 440.23,-141.67 166.54,0 310.75,47.23 432.62,141.67 121.86,94.44 182.79,227.97 182.79,400.61l0 432.63 -901.78 0 0 109.68c0,69.05 27.91,124.4 83.79,166.03 55.85,41.65 121.34,62.46 196.5,62.46 144.21,0 241.69,-52.81 292.47,-158.42zm6.09 -456.98l0 -149.28c0,-69.07 -28.43,-123.4 -85.29,-163 -56.87,-39.62 -124.92,-59.4 -204.14,-59.4 -81.22,0 -150.29,19.78 -207.17,59.4 -56.86,39.6 -84.28,95.97 -82.25,169.09l0 143.19 578.84 0zm1206.45 627.58l0 313.82c-192.94,0 -342.72,-48.25 -449.37,-144.73 -106.63,-96.46 -159.95,-228.99 -159.95,-397.58l0 -1645.16 335.12 0 0 1645.16c0,67.04 23.36,121.86 70.08,164.51 46.71,42.66 114.76,63.98 204.11,63.98zm795.16 0l0 313.82c-192.95,0 -342.72,-48.25 -449.38,-144.73 -106.63,-96.46 -159.94,-228.99 -159.94,-397.58l0 -1645.16 335.11 0 0 1645.16c0,67.04 23.37,121.86 70.09,164.51 46.71,42.66 114.76,63.98 204.11,63.98zm149.28 -1690.84c0,-60.94 20.3,-111.72 60.94,-152.33 40.61,-40.62 90.37,-60.95 149.27,-60.95 62.96,0 114.26,20.33 153.85,60.95 39.62,40.61 59.41,91.39 59.41,152.33 0,60.92 -20.31,111.7 -60.92,152.34 -40.64,40.61 -91.42,60.92 -152.34,60.92 -58.91,0 -108.66,-20.83 -149.27,-62.46 -40.64,-41.63 -60.94,-91.89 -60.94,-150.8zm48.73 396.06l335.14 0 0 1578.12 -335.14 0 0 -1578.12zm639.79 -396.06c0,-60.94 20.83,-111.72 62.46,-152.33 41.63,-40.62 91.92,-60.95 150.82,-60.95 60.91,0 111.7,20.33 152.31,60.95 40.63,40.61 60.94,91.39 60.94,152.33 0,58.91 -20.31,109.16 -60.94,150.8 -40.61,41.63 -91.4,62.46 -152.31,62.46 -58.91,0 -109.19,-20.83 -150.82,-62.46 -41.62,-41.63 -62.46,-91.89 -62.46,-150.8zm-167.55 2199.65l0 313.79c367.6,0 551.43,-178.73 551.43,-536.19l0 -1581.18 -335.14 0 0 1581.18c0,75.14 -14.22,130.99 -42.66,167.55 -28.43,36.56 -86.31,54.86 -173.63,54.86z"/>
  <path class="fil1" d="M2237.69 3941.79c-583.87,-717.12 -722.89,-1317.87 -417.07,-1802.3 396.88,-596.93 710.64,-1038.42 1534.55,-967.2 538.28,-712.75 1469.16,-746.3 1961.15,-4.19 65.97,278.43 173.84,236.8 173.84,236.8 416.09,-109.83 852.97,161.35 779.84,664.4 284.91,238.67 631.45,539.92 627.97,911.58 -3.48,371.66 -173.16,722.23 -462.5,955.53 -2798.51,3.6 -4197.78,5.39 -4197.78,5.39z"/>
  <path class="fil0" d="M6427.57 2184c-92.3,-14.28 -155.55,-100.72 -141.26,-193.02 14.29,-92.3 100.72,-155.55 193.02,-141.26 209.47,32.78 408.44,122.41 571.44,260.23 155.23,131.23 278.38,306.12 347.62,517.22 43.51,132.6 64.16,263.89 64.16,390.08 0,236.98 -71.79,457.35 -201.05,637.75 -129.29,180.43 -315.9,320 -545.43,395.27 -120.98,39.68 -253.08,61.31 -393.95,61.31l-4084.41 0c-70.59,0 -131.12,-43.08 -156.75,-104.41l-951.83 -1878.97 -959.33 0c-93.77,0 -169.79,-76.02 -169.79,-169.79 0,-93.77 76.02,-169.79 169.79,-169.79l1063.17 0 0 0.39c61.87,0.05 121.47,34.12 151.22,93.13l957.36 1889.86 3980.56 0c105.39,0 202.27,-15.55 289.18,-44.06 157.92,-51.79 285.97,-147.33 374.29,-270.57 88.33,-123.29 137.38,-275.34 137.38,-440.12 0,-92.34 -15.1,-188.35 -46.91,-285.31 -48.63,-148.31 -135.15,-271.16 -244.15,-363.32 -115.78,-97.89 -256.59,-161.51 -404.33,-184.62z"/>
  <path class="fil0" d="M6572.25 2101.81c-49.44,79.46 -153.99,103.81 -233.45,54.37 -79.45,-49.44 -103.81,-153.99 -54.37,-233.45 50.55,-81.2 76.18,-172.59 76.75,-263.57 0.56,-92.08 -23.76,-184.17 -72.99,-265.5l-0.18 -0.3 -0.47 0.3c-50.58,-83.59 -122.66,-150.89 -205.97,-193.83 -78.53,-40.46 -167.32,-59.1 -257.28,-48.72 -34.98,4.03 -67.83,10.85 -98.16,20.08 -31.26,9.53 -62.53,22.46 -93.27,38.3 -83.13,42.85 -185.29,10.18 -228.15,-72.94 -42.85,-83.13 -10.18,-185.29 72.94,-228.15 46.81,-24.13 97.14,-44.62 150.32,-60.86 52.42,-15.99 105.33,-27.3 157.83,-33.34 158.6,-18.28 314.18,14.04 450.99,84.53 138.79,71.54 258.19,182.61 341.25,319.84l-0.47 0.29c82.25,135.99 122.84,289.1 121.88,441.61 -0.95,153.74 -43.39,306.8 -127.18,441.34z"/>
  <path class="fil0" d="M1989.76 2137.51c1.09,93.4 -73.73,170.04 -167.14,171.12 -93.4,1.09 -170.04,-73.74 -171.12,-167.14 -3.67,-286.53 83.37,-558.67 238.56,-783.63 155.28,-225.07 378.92,-403.12 648.32,-501.49 268.74,-98.12 554.21,-105.93 818.09,-33.86 263.83,72.08 505.78,224.07 687.51,445.45 59.33,72.16 48.94,178.75 -23.21,238.09 -72.15,59.33 -178.75,48.94 -238.09,-23.21 -136.35,-166.1 -317.62,-280.09 -515.1,-334.03 -197.47,-53.92 -411.65,-47.9 -613.79,25.9 -201.49,73.55 -368.87,206.89 -485.19,375.48 -116.34,168.65 -181.58,372.58 -178.85,587.31z"/>
  <path class="fil2" d="M3323.42 988.63c-34.8,86.8 -133.39,128.97 -220.19,94.17 -86.79,-34.79 -128.97,-133.38 -94.17,-220.18 121.07,-299.8 337.81,-537.37 603.74,-686.51 265.91,-149.12 581.24,-210.25 899.52,-157.38 318.57,52.92 597.48,213.02 801.13,440.45 203.61,227.38 331.99,522.22 349.56,844.64 4.76,93.4 -67.1,173.01 -160.51,177.76 -93.4,4.75 -173,-67.1 -177.76,-160.51 -13.24,-243.03 -109.95,-465.15 -263.31,-636.41 -153.3,-171.22 -363.43,-291.79 -603.49,-331.66 -240.3,-39.91 -478.48,6.26 -679.33,118.9 -200.78,112.61 -364.21,291.43 -455.19,516.73z"/>
  <path class="fil0" d="M3125.42 4578.51c54.71,0 104.11,-21.93 139.72,-57.36 35.43,-35.6 57.36,-85.01 57.36,-139.7 0,-54.71 -21.94,-104.11 -57.36,-139.72 -35.61,-35.43 -85.01,-57.36 -139.72,-57.36 -54.69,0 -104.1,21.94 -139.7,57.36 -35.43,35.61 -57.37,85.01 -57.37,139.72 0,54.69 21.94,104.1 57.37,139.7 35.6,35.43 85.01,57.36 139.7,57.36zm378.8 182.41c-97.11,97.09 -231.11,157.17 -378.8,157.17 -147.72,0 -281.67,-60.08 -378.79,-157.17l-0.68 -0.68c-97.09,-97.12 -157.17,-231.07 -157.17,-378.79 0,-147.69 60.08,-281.69 157.17,-378.8l0.68 -0.68c97.12,-97.09 231.07,-157.18 378.79,-157.18 147.69,0 281.69,60.09 378.8,157.18l0.68 0.68c97.09,97.11 157.18,231.11 157.18,378.8 0,147.72 -60.09,281.67 -157.18,378.79l-0.68 0.68z"/>
  <path class="fil0" d="M5807.6 4578.51c54.71,0 104.11,-21.93 139.72,-57.36 35.43,-35.6 57.36,-85.01 57.36,-139.7 0,-54.71 -21.94,-104.11 -57.36,-139.72 -35.61,-35.43 -85.01,-57.36 -139.72,-57.36 -54.69,0 -104.09,21.94 -139.7,57.36 -35.43,35.61 -57.36,85.01 -57.36,139.72 0,54.69 21.94,104.1 57.36,139.7 35.61,35.43 85.01,57.36 139.7,57.36zm378.81 182.41c-97.12,97.09 -231.12,157.17 -378.81,157.17 -147.72,0 -281.67,-60.08 -378.79,-157.17l-0.67 -0.68c-97.1,-97.12 -157.18,-231.07 -157.18,-378.79 0,-147.69 60.08,-281.69 157.18,-378.8l0.67 -0.68c97.12,-97.09 231.07,-157.18 378.79,-157.18 147.69,0 281.69,60.09 378.81,157.18l0.67 0.68c97.1,97.11 157.18,231.11 157.18,378.8 0,147.72 -60.08,281.67 -157.18,378.79l-0.67 0.68z"/>
  <path class="fil0" d="M1601.64 3771.23c93.77,0 169.79,76.02 169.79,169.79 0,93.76 -76.02,169.78 -169.79,169.78l-717 0c-93.77,0 -169.79,-76.02 -169.79,-169.78 0,-93.77 76.02,-169.79 169.79,-169.79l717 0z"/>
  <path class="fil0" d="M1182.18 2813.24c93.76,0 169.78,76.02 169.78,169.79 0,93.76 -76.02,169.78 -169.78,169.78l-717.01 0c-93.76,0 -169.79,-76.02 -169.79,-169.78 0,-93.77 76.03,-169.79 169.79,-169.79l717.01 0z"/>
  <path class="fil0" d="M3365.41 3260.78c48.49,80.46 22.57,185.02 -57.88,233.51 -80.46,48.49 -185.03,22.57 -233.52,-57.88l-419.67 -694.42c-34.19,-56.71 -31.37,-125.41 1.45,-178.01l418.22 -692.03c48.5,-80.46 153.07,-106.38 233.52,-57.88 80.46,48.49 106.37,153.06 57.88,233.51l-366.61 606.6 366.61 606.6z"/>
  <path class="fil0" d="M5398.93 3436.41c-48.5,80.46 -153.06,106.37 -233.51,57.88 -80.46,-48.5 -106.38,-153.06 -57.88,-233.51l366.6 -606.6 -366.6 -606.6c-48.5,-80.46 -22.57,-185.03 57.88,-233.51 80.46,-48.5 185.02,-22.57 233.51,57.88l418.22 692.03c32.83,52.59 35.63,121.3 1.45,178.01l-419.67 694.42z"/>
  <path class="fil0" d="M3989.44 3389.59c-47.75,80.82 -152.03,107.62 -232.84,59.88 -80.82,-47.75 -107.62,-152.02 -59.88,-232.84l795.74 -1343c47.75,-80.82 152.02,-107.62 232.83,-59.88 80.83,47.75 107.63,152.02 59.88,232.84l-795.73 1343z"/>
  <path class="fil3" d="M17167.91 2164.34c0,77.44 39.73,135.5 119.18,174.22 79.49,38.72 191.55,71.31 336.19,97.79 87.63,16.32 164.55,33.65 230.75,51.98 66.19,18.33 136.5,45.85 210.88,82.52 74.38,36.66 134.98,78.92 181.84,126.83 46.86,47.87 84.57,110.52 113.05,187.96 28.53,77.4 39.77,165.03 33.65,262.83 -8.14,193.56 -91.18,342.8 -249.08,447.72 -157.9,104.91 -343.8,157.41 -557.75,157.41 -171.16,0 -330.59,-45.36 -478.3,-136.02 -147.71,-90.66 -258.23,-219.54 -331.6,-386.6l323.95 -146.7c46.9,101.86 114.62,179.82 203.27,233.81 88.61,53.99 184.91,80.99 288.81,80.99 118.17,0 220.03,-23.93 305.61,-71.83 85.58,-47.87 131.38,-116.65 137.52,-206.29 4.07,-46.86 -3.07,-88.64 -21.4,-125.31 -18.33,-36.66 -39.73,-65.71 -64.19,-87.11 -24.42,-21.4 -62.65,-41.26 -114.58,-59.59 -51.98,-18.33 -95.78,-31.55 -131.43,-39.73 -35.66,-8.14 -88.12,-19.34 -157.38,-33.6 -101.89,-20.4 -191.02,-43.8 -267.42,-70.31 -76.39,-26.47 -152.3,-63.14 -227.68,-109.99 -75.38,-46.86 -133.97,-109.03 -175.75,-186.43 -41.75,-77.45 -62.65,-167.09 -62.65,-268.95 12.25,-187.48 94.25,-336.19 246.02,-446.23 151.83,-109.99 328.58,-165.03 530.28,-165.03 383.06,0 642.82,155.89 779.32,467.62l-320.88 143.64c-77.45,-171.16 -230.27,-256.74 -458.44,-256.74 -114.1,0 -212.94,24.98 -296.46,74.86 -83.52,49.91 -125.31,118.7 -125.31,206.29zm1882.62 -250.58l0 608.16 938.24 0 0 354.53 -938.24 0 0 846.57 -354.53 0 0 -2163.78 1424.19 0 0 354.53 -1069.66 0zm1289.74 1142.99l0 -831.25c0,-218.02 82.52,-388.65 247.55,-511.95 165.04,-123.25 361.66,-184.9 589.84,-184.9 165.03,0 320.4,42.79 466.09,128.37 145.66,85.59 256.21,207.83 331.6,366.73l-314.8 155.89c-50.93,-93.72 -121.24,-166.56 -210.88,-218.54 -89.65,-51.93 -183.37,-77.92 -281.16,-77.92 -128.37,0 -239.93,30.06 -334.66,90.18 -94.73,60.07 -142.11,144.12 -142.11,252.14l0 831.25c0,107.99 47.38,192.03 142.11,252.15 94.73,60.12 206.29,90.17 334.66,90.17 99.85,0 194.57,-25.46 284.21,-76.42 89.66,-50.94 158.92,-123.25 207.83,-216.97l314.8 146.7c-75.39,160.96 -186.96,284.74 -334.67,371.32 -147.71,86.59 -305.12,129.9 -472.18,129.9 -142.63,0 -275.07,-24.98 -397.31,-74.9 -122.24,-49.91 -224.63,-128.85 -307.15,-236.83 -82.51,-107.99 -123.77,-236.35 -123.77,-385.11zm1836.78 0l0 -831.25c0,-218.02 82.52,-388.65 247.55,-511.95 165.04,-123.25 361.66,-184.9 589.83,-184.9 165.04,0 320.41,42.79 466.1,128.37 145.65,85.59 256.21,207.83 331.59,366.73l-314.79 155.89c-50.93,-93.72 -121.24,-166.56 -210.88,-218.54 -89.66,-51.93 -183.37,-77.92 -281.16,-77.92 -128.37,0 -239.94,30.06 -334.66,90.18 -94.73,60.07 -142.11,144.12 -142.11,252.14l0 831.25c0,107.99 47.38,192.03 142.11,252.15 94.72,60.12 206.29,90.17 334.66,90.17 99.84,0 194.57,-25.46 284.21,-76.42 89.65,-50.94 158.92,-123.25 207.83,-216.97l314.79 146.7c-75.38,160.96 -186.95,284.74 -334.66,371.32 -147.71,86.59 -305.13,129.9 -472.18,129.9 -142.64,0 -275.07,-24.98 -397.31,-74.9 -122.25,-49.91 -224.63,-128.85 -307.15,-236.83 -82.52,-107.99 -123.77,-236.35 -123.77,-385.11z"/>
 </g>
</svg>
